<?xml version="1.0" encoding="utf-8"?>
<!-- Generator: Adobe Illustrator 26.5.0, SVG Export Plug-In . SVG Version: 6.00 Build 0)  -->
<svg version="1.1" id="Layer_1" xmlns="http://www.w3.org/2000/svg" xmlns:xlink="http://www.w3.org/1999/xlink" x="0px" y="0px"
	 viewBox="0 0 210.8 30.1" style="enable-background:new 0 0 210.8 30.1;" xml:space="preserve">
<style type="text/css">
	.st0{fill:url(#SVGID_1_);}
	.st1{fill:#463FB8;}
	.st2{fill:url(#SVGID_00000091006581553525626220000000043727935858443905_);}
	.st3{fill:url(#SVGID_00000051346376001495797670000013081869484895760298_);}
	.st4{fill:url(#SVGID_00000008151066577334533940000016257723235273333133_);}
</style>
<g>
	<linearGradient id="SVGID_1_" gradientUnits="userSpaceOnUse" x1="118.5494" y1="14.841" x2="128.4861" y2="14.841">
		<stop  offset="0" style="stop-color:#463FB8"/>
		<stop  offset="1" style="stop-color:#6649B5"/>
	</linearGradient>
	<path class="st0" d="M128.1,17.1c-0.2,0.7-0.6,1.3-1,1.8c-0.4,0.5-1,0.9-1.6,1.2c-0.6,0.3-1.3,0.4-2,0.4c-0.7,0-1.4-0.1-2-0.4
		c-0.6-0.3-1.1-0.7-1.6-1.2c-0.4-0.5-0.8-1.1-1-1.8c-0.2-0.7-0.4-1.5-0.4-2.3c0-0.8,0.1-1.6,0.4-2.3c0.2-0.7,0.6-1.3,1-1.8
		c0.4-0.5,1-0.9,1.6-1.2c0.6-0.3,1.3-0.4,2-0.4c0.7,0,1.4,0.1,2,0.4c0.6,0.3,1.1,0.7,1.6,1.2c0.4,0.5,0.8,1.1,1,1.8
		c0.2,0.7,0.4,1.4,0.4,2.3C128.5,15.6,128.4,16.4,128.1,17.1z"/>
	<path class="st1" d="M41.6,19.8c0,5-2.9,7.8-7.3,7.8c-4.4,0-7.3-2.7-7.3-7.8V9.1h-2.8v10.7c0,6.8,4.1,10.3,10.1,10.3
		s10.1-3.5,10.1-10.3V9.1h-2.8V19.8z"/>
	<polygon class="st1" points="64.3,11.3 64.3,9.1 46.5,9.1 46.5,11.6 60.6,11.6 45.9,27.3 45.9,29.6 64.8,29.6 64.8,27.1 49.6,27.1 
			"/>
	<polygon class="st1" points="84.8,11.3 84.8,9.1 66.9,9.1 66.9,11.6 81,11.6 66.3,27.3 66.3,29.6 85.2,29.6 85.2,27.1 70,27.1 	"/>
	<path class="st1" d="M11.4,8.5c-2,0-3.7,0.5-5.2,1.3c0,0,0,0,0,0c0,0-0.1,0-0.1,0.1l0,0c0,0,0,0,0,0c-1.5,0.9-2.6,2-3.2,2.7V0.1H0
		v19.1c0,6.6,4.6,10.9,11,10.9c6.5,0,11.1-4.6,11.1-10.9C22,12.9,17.4,8.5,11.4,8.5z M11,27.5c-4.9,0-8.2-3.5-8.2-8.2
		c0-4.7,3.3-8.2,8.2-8.2c4.9,0,8.2,3.5,8.2,8.2C19.2,24,15.9,27.5,11,27.5z"/>
	
		<linearGradient id="SVGID_00000070804954613314083740000010515173974576158889_" gradientUnits="userSpaceOnUse" x1="162.471" y1="4.7466" x2="187.1201" y2="24.7297">
		<stop  offset="0" style="stop-color:#463FB8"/>
		<stop  offset="0.2938" style="stop-color:#593FB8"/>
		<stop  offset="0.8967" style="stop-color:#7B3FB7"/>
	</linearGradient>
	<path style="fill:url(#SVGID_00000070804954613314083740000010515173974576158889_);" d="M178.5,10.8c-0.4-0.5-1-0.9-1.6-1.2
		c-0.6-0.3-1.3-0.4-2-0.4c-0.7,0-1.4,0.1-2,0.4c-0.6,0.3-1.1,0.7-1.6,1.2c-0.4,0.5-0.8,1.1-1,1.8c-0.2,0.7-0.4,1.4-0.4,2.3
		c0,0.8,0.1,1.6,0.4,2.3c0.2,0.7,0.6,1.3,1,1.8c0.4,0.5,1,0.9,1.6,1.2c0.6,0.3,1.3,0.4,2,0.4c0.7,0,1.4-0.1,2-0.4
		c0.6-0.3,1.1-0.7,1.6-1.2c0.4-0.5,0.8-1.1,1-1.8c0.2-0.7,0.4-1.5,0.4-2.3c0-0.8-0.1-1.6-0.4-2.3C179.3,11.9,179,11.3,178.5,10.8z"
		/>
	
		<linearGradient id="SVGID_00000082325943987284038330000010059716307305554589_" gradientUnits="userSpaceOnUse" x1="118.5494" y1="14.841" x2="141.5387" y2="14.841">
		<stop  offset="0" style="stop-color:#463FB8"/>
		<stop  offset="1" style="stop-color:#6649B5"/>
	</linearGradient>
	<path style="fill:url(#SVGID_00000082325943987284038330000010059716307305554589_);" d="M127.1,10.8c-0.4-0.5-1-0.9-1.6-1.2
		c-0.6-0.3-1.3-0.4-2-0.4c-0.7,0-1.4,0.1-2,0.4c-0.6,0.3-1.1,0.7-1.6,1.2c-0.4,0.5-0.8,1.1-1,1.8c-0.2,0.7-0.4,1.4-0.4,2.3
		c0,0.8,0.1,1.6,0.4,2.3c0.2,0.7,0.6,1.3,1,1.8c0.4,0.5,1,0.9,1.6,1.2c0.6,0.3,1.3,0.4,2,0.4c0.7,0,1.4-0.1,2-0.4
		c0.6-0.3,1.1-0.7,1.6-1.2c0.4-0.5,0.8-1.1,1-1.8c0.2-0.7,0.4-1.5,0.4-2.3c0-0.8-0.1-1.6-0.4-2.3C127.9,11.9,127.6,11.3,127.1,10.8z
		"/>
	
		<linearGradient id="SVGID_00000133511536066055769620000010990763261546463901_" gradientUnits="userSpaceOnUse" x1="76.1871" y1="-4.7303" x2="236.7697" y2="41.7009">
		<stop  offset="0" style="stop-color:#463FB8"/>
		<stop  offset="0.2961" style="stop-color:#513FB8"/>
		<stop  offset="0.8188" style="stop-color:#6F3FB7"/>
		<stop  offset="1" style="stop-color:#7B3FB7"/>
	</linearGradient>
	<path style="fill:url(#SVGID_00000133511536066055769620000010990763261546463901_);" d="M196.1,0.1h-91.8
		c-8.1,0-14.7,6.6-14.7,14.7v14.7h106.6c8.1,0,14.7-6.6,14.7-14.7v0C210.8,6.7,204.2,0.1,196.1,0.1z M113.9,9.6h-5.5V24h-4.5V9.6
		h-5.5v-4h15.4V9.6z M132.3,18.7c-0.5,1.2-1.1,2.2-2,3.1c-0.8,0.9-1.8,1.5-3,2c-1.2,0.5-2.4,0.7-3.8,0.7c-1.4,0-2.6-0.2-3.8-0.7
		c-1.2-0.5-2.1-1.1-3-2c-0.8-0.9-1.5-1.9-2-3.1c-0.5-1.2-0.7-2.5-0.7-3.9c0-1.4,0.2-2.7,0.7-3.9c0.5-1.2,1.1-2.2,2-3
		c0.8-0.9,1.8-1.5,3-2c1.2-0.5,2.4-0.7,3.8-0.7c1.4,0,2.6,0.2,3.8,0.7c1.2,0.5,2.1,1.1,3,2c0.8,0.9,1.5,1.9,2,3
		c0.5,1.2,0.7,2.5,0.7,3.9C133,16.2,132.7,17.5,132.3,18.7z M149.3,24h-4.9l-5.2-7.8V24h-4.5V5.7h4.5v6.9l5.2-6.9h4.9l-6.7,8.8
		L149.3,24z M165.3,9.6h-5.5V24h-4.5V9.6h-5.5v-4h15.4V9.6z M183.7,18.7c-0.5,1.2-1.1,2.2-2,3.1c-0.8,0.9-1.8,1.5-3,2
		c-1.2,0.5-2.4,0.7-3.8,0.7c-1.4,0-2.6-0.2-3.8-0.7c-1.2-0.5-2.1-1.1-3-2c-0.8-0.9-1.5-1.9-2-3.1c-0.5-1.2-0.7-2.5-0.7-3.9
		c0-1.4,0.2-2.7,0.7-3.9c0.5-1.2,1.1-2.2,2-3c0.8-0.9,1.8-1.5,3-2c1.2-0.5,2.4-0.7,3.8-0.7c1.4,0,2.6,0.2,3.8,0.7
		c1.2,0.5,2.1,1.1,3,2c0.8,0.9,1.5,1.9,2,3c0.5,1.2,0.7,2.5,0.7,3.9C184.4,16.2,184.1,17.5,183.7,18.7z M200.7,24h-4.9l-5.2-7.8V24
		H186V5.7h4.5v6.9l5.2-6.9h4.9l-6.7,8.8L200.7,24z"/>
</g>
</svg>
