<?xml version="1.0" encoding="utf-8"?>
<!-- Generator: Adobe Illustrator 26.5.0, SVG Export Plug-In . SVG Version: 6.00 Build 0)  -->
<svg version="1.1" id="Layer_1" xmlns="http://www.w3.org/2000/svg" xmlns:xlink="http://www.w3.org/1999/xlink" x="0px" y="0px"
	 viewBox="0 0 210.8 30.1" style="enable-background:new 0 0 210.8 30.1;" xml:space="preserve">
<style type="text/css">
	.st0{fill:#463FB8;}
</style>
<g>
	<g>
		<path class="st0" d="M24.1,19.8V9.1h2.8v10.7c0,5,2.9,7.8,7.3,7.8s7.3-2.7,7.3-7.8V9.1h2.8v10.7c0,6.8-4.1,10.3-10.1,10.3
			S24.1,26.6,24.1,19.8z"/>
		<path class="st0" d="M45.9,27.4l14.7-15.8H46.5V9.1h17.8v2.2L49.6,27.1h15.1v2.5H45.9V27.4z"/>
		<path class="st0" d="M66.3,27.4L81,11.6H66.9V9.1h17.8v2.2L70,27.1h15.1v2.5H66.3V27.4z"/>
		<path class="st0" d="M11.4,8.6c-2,0-3.7,0.5-5.2,1.3l0,0c0,0-0.1,0-0.1,0.1l0,0l0,0c-1.5,0.9-2.6,2-3.2,2.7V0.1H0v19.1
			c0,6.6,4.6,10.9,11,10.9c6.5,0,11.1-4.6,11.1-10.9C22,13,17.4,8.6,11.4,8.6z M11,27.6c-4.9,0-8.2-3.5-8.2-8.2s3.3-8.2,8.2-8.2
			s8.2,3.5,8.2,8.2S15.9,27.6,11,27.6z"/>
	</g>
	<g>
		<path class="st0" d="M178.5,10.8c-0.4-0.5-1-0.9-1.6-1.2s-1.3-0.4-2-0.4s-1.4,0.1-2,0.4c-0.6,0.3-1.1,0.7-1.6,1.2
			c-0.4,0.5-0.8,1.1-1,1.8s-0.4,1.4-0.4,2.3c0,0.8,0.1,1.6,0.4,2.3c0.2,0.7,0.6,1.3,1,1.8s1,0.9,1.6,1.2c0.6,0.3,1.3,0.4,2,0.4
			s1.4-0.1,2-0.4s1.1-0.7,1.6-1.2c0.4-0.5,0.8-1.1,1-1.8c0.2-0.7,0.4-1.5,0.4-2.3s-0.1-1.6-0.4-2.3
			C179.3,11.9,178.9,11.3,178.5,10.8z"/>
		<path class="st0" d="M127.1,10.8c-0.4-0.5-1-0.9-1.6-1.2s-1.3-0.4-2-0.4s-1.4,0.1-2,0.4c-0.6,0.3-1.1,0.7-1.6,1.2
			c-0.4,0.5-0.8,1.1-1,1.8s-0.4,1.4-0.4,2.3c0,0.8,0.1,1.6,0.4,2.3c0.2,0.7,0.6,1.3,1,1.8s1,0.9,1.6,1.2c0.6,0.3,1.3,0.4,2,0.4
			s1.4-0.1,2-0.4s1.1-0.7,1.6-1.2c0.4-0.5,0.8-1.1,1-1.8c0.2-0.7,0.4-1.5,0.4-2.3s-0.1-1.6-0.4-2.3
			C127.9,11.9,127.5,11.3,127.1,10.8z"/>
		<path class="st0" d="M196.1,0.1h-91.8c-8.1,0-14.7,6.6-14.7,14.7v14.7h106.6c8.1,0,14.7-6.6,14.7-14.7l0,0
			C210.8,6.7,204.2,0.1,196.1,0.1z M113.9,9.7h-5.5V24h-4.5V9.7h-5.5v-4h15.4L113.9,9.7L113.9,9.7z M132.2,18.7
			c-0.5,1.2-1.1,2.2-2,3.1c-0.8,0.9-1.8,1.5-3,2s-2.4,0.7-3.8,0.7s-2.6-0.2-3.8-0.7c-1.2-0.5-2.1-1.1-3-2c-0.8-0.9-1.5-1.9-2-3.1
			s-0.7-2.5-0.7-3.9s0.2-2.7,0.7-3.9s1.1-2.2,2-3c0.8-0.9,1.8-1.5,3-2s2.4-0.7,3.8-0.7s2.6,0.2,3.8,0.7c1.2,0.5,2.1,1.1,3,2
			c0.8,0.9,1.5,1.9,2,3c0.5,1.2,0.7,2.5,0.7,3.9C132.9,16.3,132.7,17.6,132.2,18.7z M149.3,24h-4.9l-5.2-7.8V24h-4.5V5.7h4.5v6.9
			l5.2-6.9h4.9l-6.7,8.8L149.3,24z M165.3,9.7h-5.5V24h-4.5V9.7h-5.5v-4h15.4v4H165.3z M183.6,18.7c-0.5,1.2-1.1,2.2-2,3.1
			c-0.8,0.9-1.8,1.5-3,2s-2.4,0.7-3.8,0.7c-1.4,0-2.6-0.2-3.8-0.7s-2.1-1.1-3-2c-0.8-0.9-1.5-1.9-2-3.1s-0.7-2.5-0.7-3.9
			s0.2-2.7,0.7-3.9s1.1-2.2,2-3c0.8-0.9,1.8-1.5,3-2s2.4-0.7,3.8-0.7c1.4,0,2.6,0.2,3.8,0.7s2.1,1.1,3,2c0.8,0.9,1.5,1.9,2,3
			c0.5,1.2,0.7,2.5,0.7,3.9C184.3,16.3,184.1,17.6,183.6,18.7z M200.7,24h-4.9l-5.2-7.8V24H186V5.7h4.5v6.9l5.2-6.9h4.9l-6.7,8.8
			L200.7,24z"/>
	</g>
</g>
</svg>
