<svg xmlns="http://www.w3.org/2000/svg" width="35.996" height="35.996" viewBox="0 0 35.996 35.996">
  <g id="gear" transform="translate(-0.002 -0.001)">
    <path id="패스_530" data-name="패스 530" d="M19.883,3.658a1.963,1.963,0,0,0-3.766,0l-.211.718A4.214,4.214,0,0,1,9.848,6.885l-.657-.36A1.965,1.965,0,0,0,6.527,9.191l.358.657a4.214,4.214,0,0,1-2.509,6.057l-.718.211a1.963,1.963,0,0,0,0,3.766l.718.211a4.214,4.214,0,0,1,2.509,6.059l-.36.655a1.965,1.965,0,0,0,2.666,2.664l.657-.358a4.214,4.214,0,0,1,6.057,2.511l.211.716a1.963,1.963,0,0,0,3.766,0l.211-.718a4.214,4.214,0,0,1,6.059-2.509l.655.36a1.965,1.965,0,0,0,2.664-2.666l-.358-.655a4.214,4.214,0,0,1,2.511-6.059l.716-.211a1.963,1.963,0,0,0,0-3.766l-.718-.211a4.214,4.214,0,0,1-2.509-6.057l.36-.657a1.965,1.965,0,0,0-2.666-2.664l-.655.358a4.214,4.214,0,0,1-6.059-2.509l-.211-.718Zm-5.924-.637a4.213,4.213,0,0,1,8.082,0l.211.718a1.964,1.964,0,0,0,2.824,1.17l.657-.36a4.214,4.214,0,0,1,5.715,5.717l-.358.657a1.964,1.964,0,0,0,1.17,2.824l.718.211a4.213,4.213,0,0,1,0,8.082l-.718.211a1.964,1.964,0,0,0-1.17,2.824l.36.657a4.214,4.214,0,0,1-5.717,5.715l-.657-.358a1.964,1.964,0,0,0-2.824,1.17l-.211.718a4.213,4.213,0,0,1-8.082,0l-.211-.718a1.964,1.964,0,0,0-2.824-1.17l-.657.36a4.214,4.214,0,0,1-5.715-5.717l.358-.657a1.964,1.964,0,0,0-1.17-2.824l-.718-.211a4.213,4.213,0,0,1,0-8.082l.718-.211a1.964,1.964,0,0,0,1.17-2.824l-.36-.657a4.214,4.214,0,0,1,5.717-5.715l.657.358a1.964,1.964,0,0,0,2.824-1.17l.211-.718Z" fill="#313131" fill-rule="evenodd"/>
    <path id="패스_531" data-name="패스 531" d="M18,12.946A5.054,5.054,0,1,0,23.053,18,5.053,5.053,0,0,0,18,12.946ZM10.7,18A7.3,7.3,0,1,1,18,25.3,7.3,7.3,0,0,1,10.7,18Z" fill="#313131" fill-rule="evenodd"/>
  </g>
</svg>
