<svg xmlns="http://www.w3.org/2000/svg" width="29.901" height="32.08" viewBox="0 0 29.901 32.08">
  <path id="share" d="M25.875,22.5A5.625,5.625,0,0,0,21.5,24.626l-8.224-5.141a5.018,5.018,0,0,0,0-2.97L21.5,11.374a5.625,5.625,0,1,0-1.249-3.5,5.389,5.389,0,0,0,.225,1.485L12.251,14.5a5.625,5.625,0,1,0,0,7l8.224,5.141a5.389,5.389,0,0,0-.225,1.486A5.625,5.625,0,1,0,25.875,22.5Zm0-18A3.375,3.375,0,1,1,22.5,7.875,3.375,3.375,0,0,1,25.875,4.5Zm-18,16.875A3.375,3.375,0,1,1,11.25,18a3.375,3.375,0,0,1-3.375,3.375Zm18,10.125a3.375,3.375,0,1,1,3.375-3.375A3.375,3.375,0,0,1,25.875,31.5Z" transform="translate(-1.971 -1.92)" fill="#919191" stroke="#919191" stroke-width="0.5"/>
</svg>
