<?xml version="1.0" encoding="utf-8"?>
<!-- Generator: Adobe Illustrator 26.5.0, SVG Export Plug-In . SVG Version: 6.00 Build 0)  -->
<svg version="1.1" id="Layer_1" xmlns="http://www.w3.org/2000/svg" xmlns:xlink="http://www.w3.org/1999/xlink" x="0px" y="0px"
	 viewBox="0 0 24 30.8" style="enable-background:new 0 0 24 30.8;" xml:space="preserve">
<style type="text/css">
	.st0{fill:#866AC8;}
</style>
<g id="document-text-outline" transform="translate(-6 -2.625)">
	<path id="패스_513" class="st0" d="M9.5,2.6h7.6c0.8,0,1.6,0.3,2.1,0.9l9.9,9.9c0.6,0.6,0.9,1.3,0.9,2.1l0,0v14.7
		c0.1,0.8-0.1,1.7-0.6,2.4c-0.7,0.6-1.5,0.8-2.4,0.7H9c-0.9,0.1-1.7-0.2-2.4-0.7C6.1,32,5.9,31.1,6,30.3V6.1C6,3.8,7.2,2.6,9.5,2.6z
		 M28.5,15.6L28.5,15.6c0-0.4-0.2-0.8-0.4-1.1l-9.9-9.9c-0.3-0.3-0.7-0.4-1.1-0.4H9.5c-1.4,0-2,0.5-2,2v24.1c0,0.5,0,0.9,0.2,1.4
		c0.1,0.2,0.6,0.2,1.3,0.2h18c0.7,0,1.1-0.1,1.3-0.2c0.2-0.4,0.3-0.9,0.2-1.4V15.6z"/>
	<path id="패스_514" class="st0" d="M28.7,15.4h-8.9c-1.2,0.2-2.3-0.6-2.5-1.8c0-0.2,0-0.4,0-0.7v-9c0-0.4,0.3-0.8,0.8-0.8
		s0.8,0.3,0.8,0.8v9c0,0.3,0,0.5,0.2,0.8c0.1,0.1,0.3,0.2,0.8,0.2h8.9c0.4,0,0.8,0.3,0.8,0.8S29.1,15.4,28.7,15.4L28.7,15.4
		L28.7,15.4z"/>
	<path id="패스_515" class="st0" d="M23.6,21H12.4c-0.4,0-0.8-0.3-0.8-0.8s0.3-0.8,0.8-0.8h11.2c0.4,0,0.8,0.3,0.8,0.8
		S24,21,23.6,21z"/>
	<path id="패스_516" class="st0" d="M23.6,26.6H12.4c-0.4,0-0.8-0.3-0.8-0.8s0.3-0.8,0.8-0.8h11.2c0.4,0,0.8,0.3,0.8,0.8
		S24,26.6,23.6,26.6z"/>
</g>
</svg>
