<?xml version="1.0" encoding="utf-8"?>
<!-- Generator: Adobe Illustrator 26.2.1, SVG Export Plug-In . SVG Version: 6.00 Build 0)  -->
<svg version="1.1" id="a" xmlns="http://www.w3.org/2000/svg" xmlns:xlink="http://www.w3.org/1999/xlink" x="0px" y="0px"
	 viewBox="0 0 45.8 50.5" style="enable-background:new 0 0 45.8 50.5;" xml:space="preserve">
<style type="text/css">
	.st0{fill:#74E5B6;}
	.st1{fill:none;stroke:#313131;stroke-width:2;stroke-linecap:round;stroke-linejoin:round;}
</style>
<polygon class="st0" points="18.5,26.5 17.3,15.7 26.3,21.8 33.5,33.8 40.8,45.8 36.9,48.2 33,50.5 25.7,38.5 "/>
<g>
	<path class="st1" d="M31.2,40.2H6.1c-2.5,0-4.6-2.1-4.6-4.6V6.1c0-2.5,2.1-4.6,4.6-4.6h33.6c2.5,0,4.6,2.1,4.6,4.6v29.5
		c0,1.9-1.1,3.5-2.7,4.2"/>
	<polygon class="st1" points="22,25 20.9,14.2 29.8,20.3 37.1,32.3 44.3,44.3 40.4,46.7 36.5,49 29.3,37 	"/>
	<line class="st1" x1="8.4" y1="10.8" x2="13.3" y2="10.8"/>
	<line class="st1" x1="8.4" y1="21.7" x2="13.3" y2="21.7"/>
</g>
<line class="st1" x1="1.5" y1="49" x2="29.4" y2="49"/>
</svg>
