<svg xmlns="http://www.w3.org/2000/svg" width="17" height="17" viewBox="0 0 17 17">
  <path id="Icon_ionic-ios-list-box" data-name="Icon ionic-ios-list-box" d="M3.375,4.793V18.957a1.418,1.418,0,0,0,1.418,1.418H18.957a1.418,1.418,0,0,0,1.418-1.418V4.793a1.418,1.418,0,0,0-1.418-1.418H4.793A1.416,1.416,0,0,0,3.375,4.793ZM7.023,16.931a.816.816,0,1,1,.7-.7A.813.813,0,0,1,7.023,16.931Zm0-4.249a.816.816,0,1,1,.7-.7A.813.813,0,0,1,7.023,12.682Zm0-4.249a.816.816,0,1,1,.7-.7A.813.813,0,0,1,7.023,8.433Zm10.108,8.261H9.777a.574.574,0,0,1-.572-.572h0a.574.574,0,0,1,.572-.572h7.354a.574.574,0,0,1,.572.572h0A.574.574,0,0,1,17.131,16.694Zm0-4.249H9.777a.574.574,0,0,1-.572-.572h0a.574.574,0,0,1,.572-.572h7.354a.574.574,0,0,1,.572.572h0A.574.574,0,0,1,17.131,12.445Zm0-4.249H9.777a.574.574,0,0,1-.572-.572h0a.574.574,0,0,1,.572-.572h7.354a.574.574,0,0,1,.572.572h0A.574.574,0,0,1,17.131,8.2Z" transform="translate(-3.375 -3.375)" fill="#313131"/>
</svg>
