<svg xmlns="http://www.w3.org/2000/svg" width="32" height="32" viewBox="0 0 32 32">
  <g id="play-outline" transform="translate(-2 -2)">
    <path id="패스_518" data-name="패스 518" d="M18,4.5A13.5,13.5,0,1,1,4.5,18,13.5,13.5,0,0,1,18,4.5m0-2.25A15.75,15.75,0,1,0,33.75,18,15.75,15.75,0,0,0,18,2.25Z" fill="#919191" stroke="#919191" stroke-width="0.5"/>
    <path id="패스_519" data-name="패스 519" d="M13.5,25.875a1.126,1.126,0,0,1-1.125-1.125V11.25a1.114,1.114,0,0,1,1.676-.968l12.375,6.75a1.125,1.125,0,0,1,0,1.98l-12.375,6.75a1.125,1.125,0,0,1-.551.113ZM14.625,13.14v9.72l8.9-4.86Z" fill="#919191" stroke="#919191" stroke-width="0.5"/>
  </g>
</svg>
