<svg xmlns="http://www.w3.org/2000/svg" width="32.15" height="32.251" viewBox="0 0 32.15 32.251">
  <g id="그룹_731" data-name="그룹 731" transform="translate(114 -15995.449)">
    <path id="edit-line" d="M33.87,8.32,28,2.42a2.07,2.07,0,0,0-2.92,0L4.27,23.2l-1.9,8.2a2.06,2.06,0,0,0,2,2.5,2.14,2.14,0,0,0,.43,0L13.09,32,33.87,11.24A2.07,2.07,0,0,0,33.87,8.32ZM12.09,30.2,4.32,31.83l1.77-7.62L21.66,8.7l6,6ZM29,13.25l-6-6,3.48-3.46,5.9,6Z" transform="translate(-116.322 15993.632)" fill="#313131"/>
    <path id="패스_547" data-name="패스 547" d="M0,0H16" transform="translate(-99.5 16026.5)" fill="none" stroke="#313131" stroke-linecap="round" stroke-width="2.4"/>
  </g>
</svg>
