<?xml version="1.0" encoding="utf-8"?>
<!-- Generator: Adobe Illustrator 26.3.1, SVG Export Plug-In . SVG Version: 6.00 Build 0)  -->
<svg version="1.1" id="그룹_654" xmlns="http://www.w3.org/2000/svg" xmlns:xlink="http://www.w3.org/1999/xlink" x="0px" y="0px"
	 viewBox="0 0 38.6 38.6" style="enable-background:new 0 0 38.6 38.6;" xml:space="preserve">
<style type="text/css">
	.st0{fill:#F19F4C;}
	.st1{fill:#FFFFFF;}
</style>
<path class="st0" d="M29.4,38.6H9.1c-5.1,0-9.1-4.1-9.1-9.1V9.1C0,4.1,4.1,0,9.1,0h20.3c5.1,0,9.1,4.1,9.1,9.1v20.3
	C38.6,34.5,34.5,38.6,29.4,38.6z"/>
<g>
	<g>
		<g>
			<path class="st1" d="M13.1,8.8c0-1,0.2-1.9,0.6-2.8c-0.4-0.1-0.8-0.2-1.2-0.2c-2.4,0-4.3,1.9-4.3,4.3c0,2.4,1.9,4.3,4.3,4.3
				c1,0,1.9-0.3,2.6-0.9C13.9,12.4,13.1,10.7,13.1,8.8z"/>
		</g>
		<g>
			<path class="st1" d="M13.2,15.4c-0.2,0-0.4,0-0.7,0c-5.1,0-7.9,4.1-7.9,9.2v0h4.3C9.1,20.7,10.7,17.4,13.2,15.4z"/>
		</g>
	</g>
	<g>
		<g>
			
				<ellipse transform="matrix(8.020485e-03 -1 1 8.020485e-03 10.5186 28.2466)" class="st1" cx="19.5" cy="8.8" rx="4.9" ry="4.9"/>
		</g>
		<g>
			<path class="st1" d="M28.6,25.4c0-5.8-3.2-10.6-9.1-10.6c-5.8,0-9.1,4.7-9.1,10.6v0L28.6,25.4L28.6,25.4z"/>
		</g>
	</g>
	<g>
		<g>
			<path class="st1" d="M23.8,13.5c0.7,0.6,1.6,0.9,2.6,0.9c2.4,0,4.3-1.9,4.3-4.3c0-2.4-1.9-4.3-4.3-4.3c-0.4,0-0.8,0.1-1.2,0.2
				c0.4,0.8,0.6,1.8,0.6,2.8C25.9,10.7,25.1,12.4,23.8,13.5z"/>
		</g>
		<g>
			<path class="st1" d="M34.4,24.6c0-5.1-2.8-9.2-7.9-9.2c-0.2,0-0.5,0-0.7,0c2.5,2,4.1,5.2,4.3,9.2L34.4,24.6L34.4,24.6z"/>
		</g>
	</g>
</g>
<g>
	<path class="st1" d="M1.4,30.2c0-1.7,0.9-2.9,2.1-2.9c1,0,1.8,0.9,2,2.2h-1c-0.2-0.6-0.5-0.9-1-0.9c-0.7,0-1.1,0.7-1.1,1.6
		s0.4,1.6,1.1,1.6c0.5,0,0.8-0.4,1-0.9h1c-0.2,1.3-1,2.2-2,2.2C2.2,33,1.4,31.8,1.4,30.2z"/>
	<path class="st1" d="M5.8,30.2c0-1.7,0.9-2.9,2.1-2.9c1.2,0,2.1,1.2,2.1,2.9S9.1,33,7.9,33C6.7,33,5.8,31.8,5.8,30.2z M9,30.2
		c0-0.9-0.4-1.6-1.1-1.6c-0.7,0-1.1,0.7-1.1,1.6s0.4,1.6,1.1,1.6C8.6,31.8,9,31.1,9,30.2z"/>
	<path class="st1" d="M10.5,29.4c0-1.5,0.6-2.1,1.4-2.1c0.5,0,0.8,0.3,1.1,0.8c0.2-0.5,0.6-0.8,1.1-0.8c0.8,0,1.4,0.7,1.4,2.1v3.5
		h-1v-3.5c0-0.6-0.2-0.9-0.5-0.9c-0.3,0-0.5,0.2-0.5,0.9v3.5h-1v-3.5c0-0.6-0.2-0.9-0.5-0.9c-0.3,0-0.5,0.2-0.5,0.9v3.5h-1V29.4z"/>
	<path class="st1" d="M15.9,29.4c0-1.5,0.6-2.1,1.4-2.1c0.5,0,0.8,0.3,1.1,0.8c0.2-0.5,0.6-0.8,1.1-0.8c0.8,0,1.4,0.7,1.4,2.1v3.5
		h-1v-3.5c0-0.6-0.2-0.9-0.5-0.9c-0.3,0-0.5,0.2-0.5,0.9v3.5h-1v-3.5c0-0.6-0.2-0.9-0.5-0.9c-0.3,0-0.5,0.2-0.5,0.9v3.5h-1V29.4z"/>
	<path class="st1" d="M21.3,30.8v-3.3h1v3.3c0,0.7,0.2,1.1,0.7,1.1c0.5,0,0.7-0.4,0.7-1.1v-3.3h0.9v3.3c0,1.4-0.6,2.3-1.6,2.3
		C21.9,33.1,21.3,32.2,21.3,30.8z"/>
	<path class="st1" d="M25,29.6c0-1.4,0.6-2.3,1.7-2.3c1.1,0,1.7,0.9,1.7,2.3v3.3h-1v-3.3c0-0.7-0.2-1.1-0.7-1.1
		c-0.5,0-0.7,0.4-0.7,1.1v3.3h-1V29.6z"/>
	<path class="st1" d="M29,27.4h1v5.5h-1V27.4z"/>
	<path class="st1" d="M31.4,28.7h-1.1v-1.3h3.1v1.3h-1.1v4.3h-1V28.7z"/>
	<path class="st1" d="M35.1,30.6l-1.4-3.2h1.1l0.8,1.9l0.8-1.9h1.1L36,30.6v2.3h-1V30.6z"/>
</g>
</svg>
