<?xml version="1.0" encoding="utf-8"?>
<!-- Generator: Adobe Illustrator 26.5.0, SVG Export Plug-In . SVG Version: 6.00 Build 0)  -->
<svg version="1.1" id="a" xmlns="http://www.w3.org/2000/svg" xmlns:xlink="http://www.w3.org/1999/xlink" x="0px" y="0px"
	 viewBox="0 0 19.9 18.2" style="enable-background:new 0 0 19.9 18.2;" xml:space="preserve">
<style type="text/css">
	.st0{fill:#866AC8;}
</style>
<path id="b" class="st0" d="M9.9,6.7c0.5,0,0.8,0.4,0.8,0.8s-0.4,0.8-0.8,0.8S9.1,7.9,9.1,7.5S9.5,6.7,9.9,6.7L9.9,6.7z M9.9,5
	C8.6,5,7.5,6.1,7.5,7.5S8.6,10,9.9,10s2.5-1.1,2.5-2.5S11.3,5,9.9,5L9.9,5z M2.5,8.3C1.1,8.3,0,9.4,0,10.8s1.1,2.5,2.5,2.5
	S5,12.2,5,10.8S3.9,8.3,2.5,8.3L2.5,8.3z M17.4,8.3c-1.4,0-2.5,1.1-2.5,2.5s1.1,2.5,2.5,2.5s2.5-1.1,2.5-2.5S18.8,8.3,17.4,8.3
	L17.4,8.3z M9.9,3.3c0.3,0,0.6,0,0.8,0.1V0.9C10.8,0.4,10.4,0,10,0C9.5,0,9.1,0.3,9.1,0.8c0,0,0,0,0,0.1v2.6
	C9.4,3.4,9.7,3.4,9.9,3.3z M17.4,6.7c0.3,0,0.6,0,0.8,0.1V0.9c0-0.5-0.4-0.8-0.9-0.8c-0.4,0-0.8,0.4-0.8,0.8v5.9
	C16.9,6.7,17.1,6.7,17.4,6.7z M17.4,15c-0.3,0-0.6,0-0.8-0.1v2.6c0,0.5,0.4,0.8,0.9,0.8c0.4,0,0.8-0.4,0.8-0.8v-2.6
	C18,15,17.7,15,17.4,15L17.4,15z M2.5,6.7c0.3,0,0.6,0,0.8,0.1V0.9C3.3,0.4,3,0,2.5,0S1.7,0.3,1.7,0.8c0,0,0,0,0,0.1v5.9
	C1.9,6.7,2.2,6.7,2.5,6.7L2.5,6.7z M10,11.6c-0.3,0-0.6,0-0.8-0.1v5.9c0,0.5,0.4,0.8,0.9,0.8c0.4,0,0.8-0.4,0.8-0.8v-5.9
	C10.5,11.6,10.2,11.6,10,11.6L10,11.6z M2.5,15c-0.3,0-0.6,0-0.8-0.1v2.6c0,0.5,0.4,0.8,0.9,0.8c0.4,0,0.8-0.4,0.8-0.8v-2.6
	C3.1,14.9,2.8,15,2.5,15z"/>
</svg>
