<?xml version="1.0" encoding="UTF-8"?><svg id="a" xmlns="http://www.w3.org/2000/svg" viewBox="0 0 19.91 18.25"><defs><style>.c{fill:#24cd88;}</style></defs><path id="b" class="c" d="M9.95,6.66c.46,0,.83,.37,.83,.83s-.37,.83-.83,.83-.83-.37-.83-.83,.37-.83,.83-.83h0Zm0-1.66c-1.37,0-2.49,1.11-2.49,2.49s1.11,2.49,2.49,2.49,2.49-1.11,2.49-2.49c0-1.37-1.11-2.49-2.49-2.49h0Zm-7.47,3.32c-1.37,0-2.49,1.11-2.49,2.49s1.11,2.49,2.49,2.49,2.49-1.11,2.49-2.49c0-1.37-1.11-2.49-2.49-2.49h0Zm14.93,0c-1.37,0-2.49,1.11-2.49,2.49s1.11,2.49,2.49,2.49,2.49-1.11,2.49-2.49c0-1.37-1.11-2.49-2.49-2.49h0ZM9.95,3.35c.28,0,.56,.03,.83,.08V.86c.02-.46-.34-.84-.8-.86-.46-.02-.84,.34-.86,.8,0,.02,0,.04,0,.06V3.43c.27-.06,.55-.08,.83-.08Zm7.47,3.32c.28,0,.56,.03,.83,.08V.86c-.02-.46-.4-.82-.86-.8-.44,.02-.79,.36-.8,.8V6.75c.27-.06,.55-.08,.83-.08Zm0,8.3c-.28,0-.56-.03-.83-.08v2.57c.02,.46,.4,.82,.86,.8,.44-.02,.79-.36,.8-.8v-2.57c-.27,.06-.55,.08-.83,.08h0ZM2.49,6.66c.28,0,.56,.03,.83,.08V.86C3.33,.4,2.98,.02,2.52,0c-.46-.02-.84,.34-.86,.8,0,.02,0,.04,0,.06V6.75c.27-.06,.55-.08,.83-.08Zm7.47,4.98c-.28,0-.56-.03-.83-.08v5.89c.02,.46,.4,.82,.86,.8,.44-.02,.79-.36,.8-.8v-5.89c-.27,.06-.55,.08-.83,.08h0Zm-7.47,3.32c-.28,0-.56-.03-.83-.08v2.57c.02,.46,.4,.82,.86,.8,.44-.02,.79-.36,.8-.8v-2.57c-.27,.06-.55,.08-.83,.08Z"/></svg>