<?xml version="1.0" encoding="utf-8"?>
<!-- Generator: Adobe Illustrator 26.2.1, SVG Export Plug-In . SVG Version: 6.00 Build 0)  -->
<svg version="1.1" id="a" xmlns="http://www.w3.org/2000/svg" xmlns:xlink="http://www.w3.org/1999/xlink" x="0px" y="0px"
	 viewBox="0 0 51.8 48.7" style="enable-background:new 0 0 51.8 48.7;" xml:space="preserve">
<style type="text/css">
	.st0{fill:#74E5B6;}
	.st1{fill:none;stroke:#313131;stroke-width:2;stroke-linecap:round;stroke-linejoin:round;}
</style>
<g>
	<path class="st0" d="M12.7,30.9h-2.4c-2.2,0-3.9-1.8-3.9-3.9V8.4c0-2.2,1.8-3.9,3.9-3.9h30.3c2.2,0,3.9,1.8,3.9,3.9V27
		c0,2.2-1.8,3.9-3.9,3.9h-20"/>
	<polyline class="st0" points="12.7,30.9 12.7,39.2 20.5,30.9 	"/>
</g>
<g>
	<g>
		<path class="st1" d="M17.3,27.3V37c0,1.9,1.5,3.4,3.4,3.4h17.6"/>
		<path class="st1" d="M45.3,40.5h2.2c1.9,0,3.4-1.5,3.4-3.4V20.7c0-1.9-1.5-3.4-3.4-3.4H39"/>
		<polyline class="st1" points="45.3,40.5 45.3,47.8 38.4,40.5 		"/>
	</g>
	<line class="st1" x1="38.7" y1="25" x2="43.7" y2="25"/>
	<line class="st1" x1="27.8" y1="31.6" x2="43.7" y2="31.6"/>
	<g>
		<path class="st1" d="M7.2,27.3H4.8c-2.2,0-3.9-1.8-3.9-3.9V4.8c0-2.2,1.8-3.9,3.9-3.9h30.3c2.2,0,3.9,1.8,3.9,3.9v18.6
			c0,2.2-1.8,3.9-3.9,3.9h-20"/>
		<polyline class="st1" points="7.2,27.3 7.2,35.6 15.1,27.3 		"/>
	</g>
	<line class="st1" x1="10.4" y1="9.9" x2="28.6" y2="9.9"/>
	<line class="st1" x1="10.4" y1="17.4" x2="28.6" y2="17.4"/>
	<line class="st1" x1="0.9" y1="47.8" x2="35.8" y2="47.8"/>
</g>
</svg>
