<?xml version="1.0" encoding="utf-8"?>
<!-- Generator: Adobe Illustrator 26.5.0, SVG Export Plug-In . SVG Version: 6.00 Build 0)  -->
<svg version="1.1" id="Layer_1" xmlns="http://www.w3.org/2000/svg" xmlns:xlink="http://www.w3.org/1999/xlink" x="0px" y="0px"
	 viewBox="0 0 46.7 46.7" style="enable-background:new 0 0 46.7 46.7;" xml:space="preserve">
<style type="text/css">
	.st0{fill:#414141;}
	.st1{fill:#986AC7;}
</style>
<g>
	<path class="st0" d="M20.9,24.9l13.9,13.9c-3.7,3.7-8.7,5.8-13.9,5.8c-3.4,0-6.8-0.9-9.8-2.6c-3-1.7-5.4-4.2-7.1-7.1
		c-1.7-3-2.6-6.4-2.6-9.8s0.9-6.8,2.6-9.8s4.2-5.4,7.1-7.1c3-1.7,6.4-2.6,9.8-2.6V24.9z"/>
	<path class="st1" d="M25.7,25.1h19.7c0,5.2-2.1,10.2-5.8,13.9l-5.8-5.8L25.7,25.1z"/>
	<path class="st1" d="M43.8,21.8H24.2V2.3c3.4,0,6.8,0.9,9.8,2.6s5.4,4.2,7.1,7.1C42.9,15,43.9,18.4,43.8,21.8z"/>
</g>
</svg>
