<?xml version="1.0" encoding="UTF-8"?><svg id="a" xmlns="http://www.w3.org/2000/svg" viewBox="0 0 51.35 52"><defs><style>.b{fill:#5ea8e0;}.c{fill:#fff;}.d{fill:#fab812;}.e{fill:#f46855;}.f{fill:#2d71c1;}.g{fill:#609f20;}.h{fill:#a6d71c;}.i{fill:#ea3a1e;}</style></defs><rect class="c" width="51.35" height="52" rx="15.16" ry="15.16"/><g><path class="b" d="M7.2,28.38h-2.05v-5.31h2.05c1.52,0,2.77,1.19,2.77,2.66s-1.24,2.65-2.77,2.65m6.82-4.47c-.83-2.87-3.57-4.99-6.82-4.99H.84v13.6H7.2c1.62,0,3.1-.53,4.29-1.4-.14-.52-.22-1.06-.22-1.62v-.32c0-2.15,1.08-4.06,2.74-5.26"/><path class="f" d="M14.28,25.73c0-.63-.1-1.24-.26-1.82-1.66,1.21-2.74,3.11-2.74,5.26v.32c0,.56,.08,1.1,.22,1.63,1.69-1.24,2.79-3.2,2.79-5.39"/><path class="h" d="M20.7,29.5c0,1.35-1.15,2.45-2.55,2.45s-2.55-1.1-2.55-2.45v-.32c0-1.35,1.15-2.45,2.55-2.45s2.55,1.1,2.55,2.45v.32Zm-.22-6.52s-.08-.03-.13-.04h-.04s-.06-.03-.09-.04c-.66-.2-1.36-.31-2.08-.31-1.55,0-2.98,.5-4.13,1.33,.17,.58,.26,1.19,.26,1.82,0,2.2-1.1,4.15-2.79,5.39,.76,2.85,3.45,4.97,6.65,4.97,1.5,0,2.89-.47,4.02-1.26,.65,.56,1.56,.92,2.85,1.11v-6.77c0-.08-.01-.16-.01-.25v-.03h0v-.05c-2.6-.8-4.49-3.13-4.52-5.87"/><path class="d" d="M33.39,20.32h.01l.08-.07v-4.34h-4.32v7.01c0,1.16-.98,2.1-2.19,2.1s-2.19-.94-2.19-2.1v-7.01h-4.32v7.01h0v.06c2.54,.89,4.38,3.17,4.52,5.87,.04,.01,.08,.03,.13,.04h.04s.06,.03,.09,.04c.55,.15,1.13,.23,1.73,.23,1.49,0,2.85-.49,3.95-1.3,.04-.03,.08-.07,.13-.1v-2.93c0-1.84,.92-3.47,2.33-4.52"/><path class="e" d="M44.58,19.14c-1.44,0-2.76,.5-3.79,1.32-1.03-.82-2.35-1.32-3.79-1.32-1.26,0-2.43,.38-3.39,1.03-.04,.03-.08,.06-.12,.09v2.66c0,1.92-.91,3.64-2.34,4.78h0l-.08,.07v4.76h4.3v-7.69c0-.87,.73-1.57,1.64-1.57s1.64,.7,1.64,1.57v7.69h4.3v-7.69c0-.87,.73-1.57,1.64-1.57s1.64,.7,1.64,1.57v7.69h4.3v-7.69c0-3.14-2.66-5.7-5.94-5.7"/><path class="i" d="M31.15,27.7c1.42-1.15,2.34-2.86,2.34-4.78v-2.66l-.08,.06h-.01c-1.41,1.05-2.33,2.69-2.33,4.53v2.93l.08-.07h0"/><path class="g" d="M20.48,22.98c.03,2.75,1.92,5.07,4.51,5.87-.14-2.71-1.98-4.99-4.51-5.87"/></g></svg>