<?xml version="1.0" encoding="utf-8"?>
<!-- Generator: Adobe Illustrator 26.5.0, SVG Export Plug-In . SVG Version: 6.00 Build 0)  -->
<svg version="1.1" id="Layer_1" xmlns="http://www.w3.org/2000/svg" xmlns:xlink="http://www.w3.org/1999/xlink" x="0px" y="0px"
	 viewBox="0 0 46.7 46.7" style="enable-background:new 0 0 46.7 46.7;" xml:space="preserve">
<style type="text/css">
	.st0{fill:#414141;}
	.st1{fill:#986AC7;}
</style>
<g>
	<polygon class="st0" points="45.7,40.7 45.7,43.4 1.3,43.4 1.3,3.3 4.1,3.3 4.1,40.7 	"/>
	<path class="st1" d="M42.9,10.7v9.4c0,0.4-0.3,0.7-0.7,0.7c-0.2,0-0.4-0.1-0.5-0.2L39.1,18L25.4,31.7c-0.3,0.3-0.7,0.3-1,0l0,0
		l-5.1-5.1l-9,9l-4.2-4.2l12.7-12.7c0.3-0.3,0.7-0.3,1,0l0,0l5.1,5.1l10-10l-2.6-2.6c-0.2-0.2-0.3-0.5-0.2-0.8s0.4-0.4,0.6-0.4h9.4
		C42.6,10,42.9,10.3,42.9,10.7L42.9,10.7L42.9,10.7z"/>
</g>
</svg>
