<svg xmlns="http://www.w3.org/2000/svg" width="27.127" height="23.568" viewBox="0 0 27.127 23.568">
  <path id="icon_sns_tw" d="M30.084,7.99a.435.435,0,0,0-.485-.682h0c-.452.135-.773-.546-.473-.91a5.949,5.949,0,0,0,.413-.566c.293-.455-.223-.908-.72-.7a11.9,11.9,0,0,1-1.71.585,1.359,1.359,0,0,1-1.2-.328A5.954,5.954,0,0,0,16.127,9.95h0a1.158,1.158,0,0,1-1.207,1.233,16.85,16.85,0,0,1-8.71-3.86c-1.157-.98-3-.759-3,.757h0a5.933,5.933,0,0,0,1.254,3.657c.338.434.041,1.122-.474.932a5.916,5.916,0,0,1-.762-.345.045.045,0,0,0-.067.039h0A5.951,5.951,0,0,0,6.443,17.68c.354.178.324.725-.073.725h0a.667.667,0,0,0-.676.927,5.969,5.969,0,0,0,.975,1.314c1.083,1.1,1.534,3.449.047,3.873a12,12,0,0,1-3.3.459h0a.343.343,0,0,0-.191.634,16.819,16.819,0,0,0,7.892,1.956c10.944,0,16.928-9.066,16.928-16.929q0-.093,0-.187a1.182,1.182,0,0,1,.448-.935A12.048,12.048,0,0,0,30.084,7.99Z" transform="translate(-3.062 -4)" fill="#34a7ff"/>
</svg>
