<?xml version="1.0" encoding="utf-8"?>
<!-- Generator: Adobe Illustrator 26.5.0, SVG Export Plug-In . SVG Version: 6.00 Build 0)  -->
<svg version="1.1" id="Layer_1" xmlns="http://www.w3.org/2000/svg" xmlns:xlink="http://www.w3.org/1999/xlink" x="0px" y="0px"
	 viewBox="0 0 17.1 17.1" style="enable-background:new 0 0 17.1 17.1;" xml:space="preserve">
<style type="text/css">
	.st0{fill:#313131;}
	.st1{fill:#986AC7;}
</style>
<g id="Icon_material-bubble-chart" transform="translate(-6 -6)">
	<path id="패스_107" class="st0" d="M12.8,17.1c0,1.9-1.5,3.4-3.4,3.4S6,19,6,17.1s1.5-3.4,3.4-3.4c0,0,0,0,0,0
		C11.3,13.7,12.8,15.2,12.8,17.1z"/>
	<path id="패스_108" class="st0" d="M19.7,21c0,1.2-1,2.1-2.1,2.1s-2.1-1-2.1-2.1s1-2.1,2.1-2.1S19.7,19.8,19.7,21L19.7,21z"/>
	<path id="패스_109" class="st1" d="M23.1,11.1c0,2.8-2.3,5.1-5.1,5.1c-2.8,0-5.1-2.3-5.1-5.1C12.8,8.3,15.1,6,18,6
		C20.8,6,23.1,8.3,23.1,11.1L23.1,11.1z"/>
</g>
</svg>
