<?xml version="1.0" encoding="utf-8"?>
<!-- Generator: Adobe Illustrator 26.4.0, SVG Export Plug-In . SVG Version: 6.00 Build 0)  -->
<svg version="1.1" id="Layer_1" xmlns="http://www.w3.org/2000/svg" xmlns:xlink="http://www.w3.org/1999/xlink" x="0px" y="0px"
	 viewBox="0 0 21.7 21.7" style="enable-background:new 0 0 21.7 21.7;" xml:space="preserve">
<style type="text/css">
	.st0{fill:#FFFFFF;}
</style>
<path id="Icon_ionic-ios-search" class="st0" d="M21.5,20.1l-6-6.1c3-3.7,2.3-9.1-1.4-12.1S4.9-0.4,1.9,3.3s-2.3,9.1,1.4,12.1
	c3.2,2.5,7.7,2.5,10.8-0.1l6,6.1c0.4,0.4,0.9,0.4,1.3,0C21.8,21.1,21.8,20.5,21.5,20.1z M8.7,15.4c-3.8,0-6.8-3-6.8-6.8
	c0-3.8,3-6.8,6.8-6.8c3.8,0,6.8,3,6.8,6.8c0,1.8-0.7,3.5-2,4.8C12.2,14.7,10.5,15.5,8.7,15.4L8.7,15.4z"/>
</svg>
