<svg xmlns="http://www.w3.org/2000/svg" width="30.002" height="21.1" viewBox="0 0 30.002 21.1">
  <path id="youtube" d="M14.9,21.942v-8.43l8.1,4.23-8.1,4.2Zm17.8-9.889a6.476,6.476,0,0,0-1.193-2.979A4.293,4.293,0,0,0,28.5,7.8c-4.2-.3-10.495-.3-10.495-.3h-.012s-6.3,0-10.495.3a4.293,4.293,0,0,0-3.006,1.27A6.488,6.488,0,0,0,3.3,12.052,45.384,45.384,0,0,0,3,16.908v2.276a45.409,45.409,0,0,0,.3,4.856,6.477,6.477,0,0,0,1.193,2.978A5.076,5.076,0,0,0,7.8,28.3c2.4.229,10.2.3,10.2.3s6.305-.009,10.5-.312a4.291,4.291,0,0,0,3.006-1.27A6.485,6.485,0,0,0,32.7,24.04a45.409,45.409,0,0,0,.3-4.856V16.908a45.36,45.36,0,0,0-.3-4.856Z" transform="translate(-3 -7.5)" fill="red" fill-rule="evenodd"/>
</svg>
