<?xml version="1.0" encoding="utf-8"?>
<!-- Generator: Adobe Illustrator 26.3.1, SVG Export Plug-In . SVG Version: 6.00 Build 0)  -->
<svg version="1.1" id="그룹_654" xmlns="http://www.w3.org/2000/svg" xmlns:xlink="http://www.w3.org/1999/xlink" x="0px" y="0px"
	 viewBox="0 0 38.6 38.6" style="enable-background:new 0 0 38.6 38.6;" xml:space="preserve">
<style type="text/css">
	.st0{fill:#617FF8;}
	.st1{fill:#FFFFFF;}
</style>
<path class="st0" d="M35.2,38.6H3.4c-1.9,0-3.4-1.5-3.4-3.4V3.4C0,1.5,1.5,0,3.4,0h31.8c1.9,0,3.4,1.5,3.4,3.4v31.8
	C38.6,37.1,37.1,38.6,35.2,38.6z"/>
<g>
	<path class="st1" d="M4.5,28.4c0-2,1.1-3.3,3.2-3.3s3.2,1.3,3.2,3.3v4.7H9v-4.7c0-1-0.4-1.5-1.3-1.5s-1.3,0.5-1.3,1.5v4.7H4.5V28.4
		z"/>
	<path class="st1" d="M12,25.3h5.5v1.8h-3.6v1.3h3v1.6h-3v1.4h3.6v1.8H12V25.3z"/>
	<path class="st1" d="M18.4,30.2v-4.9h1.8v4.9c0,0.9,0.4,1.2,1,1.2c0.5,0,1-0.3,1-1.2v-4.9H24v4.9c0,0.9,0.4,1.2,1,1.2
		c0.6,0,1-0.3,1-1.2v-4.9h1.8v4.9c0,2.1-1.2,3-2.7,3c-0.9,0-1.6-0.4-2.1-1.1c-0.4,0.7-1.2,1.1-2.1,1.1
		C19.5,33.3,18.4,32.3,18.4,30.2z"/>
	<path class="st1" d="M28.5,30.8h1.8c0,0.5,0.3,0.8,1,0.8c0.7,0,1-0.3,1-0.8c0-0.5-0.6-0.6-1.2-0.8c-1.1-0.2-2.4-0.5-2.4-2.4
		c0-1.5,1.1-2.5,2.7-2.5c1.6,0,2.6,1,2.7,2.5h-1.7c0-0.5-0.3-0.8-0.9-0.8c-0.7,0-0.9,0.4-0.9,0.8c0,0.5,0.6,0.6,1.3,0.8
		c1.1,0.2,2.4,0.5,2.4,2.4c0,1.6-1.1,2.5-2.8,2.5C29.6,33.3,28.5,32.3,28.5,30.8z"/>
</g>
<path class="st1" d="M16.5,18.4H6.4c-1.1,0-1.9-0.9-1.9-1.9V5.9C4.5,4.8,5.4,4,6.4,4h10.1c1.1,0,1.9,0.9,1.9,1.9v10.6
	C18.4,17.5,17.6,18.4,16.5,18.4z"/>
<path class="st1" d="M33.3,7.9H21.6c-0.4,0-0.8-0.3-0.8-0.8V6.4c0-0.4,0.3-0.8,0.8-0.8h11.7c0.4,0,0.8,0.3,0.8,0.8v0.7
	C34.1,7.6,33.7,7.9,33.3,7.9z"/>
<path class="st1" d="M33.3,17.1H21.6c-0.4,0-0.8-0.3-0.8-0.8v-0.7c0-0.4,0.3-0.8,0.8-0.8h11.7c0.4,0,0.8,0.3,0.8,0.8v0.7
	C34.1,16.7,33.7,17.1,33.3,17.1z"/>
<path class="st1" d="M33.3,22.4h-28c-0.4,0-0.8-0.3-0.8-0.8v-0.4c0-0.4,0.3-0.8,0.8-0.8h28c0.4,0,0.8,0.3,0.8,0.8v0.4
	C34.1,22,33.7,22.4,33.3,22.4z"/>
<path class="st1" d="M33.3,12.3H21.6c-0.4,0-0.8-0.3-0.8-0.8v-0.7c0-0.4,0.3-0.8,0.8-0.8h11.7c0.4,0,0.8,0.3,0.8,0.8v0.7
	C34.1,12,33.7,12.3,33.3,12.3z"/>
</svg>
