<?xml version="1.0" encoding="UTF-8"?><svg id="a" xmlns="http://www.w3.org/2000/svg" viewBox="0 0 52 52"><defs><style>.b{fill:#e33c29;}</style></defs><path class="b" d="M42.71,0H9.29C4.34,0,.32,4.02,.32,8.97V43.03c0,4.95,4.02,8.97,8.97,8.97H42.71c4.95,0,8.97-4.02,8.97-8.97V8.97c0-4.95-4.02-8.97-8.97-8.97Zm2.45,29.28h-2c-1.54,8.27-8.79,14.53-17.51,14.53-9.84,0-17.81-7.97-17.81-17.81S15.81,8.19,25.65,8.19c8.72,0,15.97,6.26,17.51,14.54h2c1.81,0,3.28,1.47,3.28,3.28s-1.47,3.28-3.28,3.28Z"/><g><path class="b" d="M16.71,23.07c.4,0,.76,.04,1.09,.11,.33,.08,.62,.18,.87,.32,.42,.23,.53,.56,.33,.98-.09,.18-.21,.3-.38,.36-.16,.06-.34,.05-.53-.04-.21-.09-.42-.16-.64-.22-.22-.06-.45-.08-.68-.08-.52,0-.96,.17-1.3,.52-.34,.35-.51,.83-.51,1.45s.17,1.1,.51,1.45,.78,.52,1.3,.52c.58,0,1.09-.12,1.51-.37,.17-.1,.34-.12,.51-.07,.17,.05,.31,.16,.39,.32,.1,.19,.14,.37,.1,.55-.04,.17-.16,.33-.36,.46-.25,.15-.56,.28-.94,.38-.38,.1-.81,.15-1.28,.15-.52,0-.99-.08-1.42-.24-.43-.16-.8-.39-1.11-.69-.31-.3-.56-.66-.73-1.07-.18-.42-.26-.88-.26-1.39s.09-.97,.26-1.39c.17-.42,.42-.78,.73-1.07s.69-.53,1.11-.69c.43-.16,.9-.24,1.42-.24Z"/><path class="b" d="M21.08,23.28c.29-.08,.57-.13,.86-.17,.29-.03,.59-.05,.9-.05,1.02,0,1.75,.22,2.21,.67s.69,1.1,.69,1.96v3.53c0,.39-.29,.58-.87,.58s-.87-.19-.87-.58v-.07c-.18,.22-.43,.4-.74,.52-.31,.13-.64,.19-1,.19-.81,0-1.42-.2-1.84-.6s-.63-.93-.63-1.6,.23-1.19,.69-1.56c.46-.37,1.09-.56,1.9-.56,.3,0,.6,.02,.89,.06,.29,.04,.54,.09,.73,.16v-.36c0-.26-.1-.47-.3-.64s-.52-.26-.95-.26-.85,.06-1.28,.17c-.21,.06-.4,.05-.55-.03s-.26-.22-.32-.42c-.06-.2-.05-.38,.02-.56,.07-.17,.22-.3,.45-.37Zm1.53,5.18c.2,0,.38-.02,.55-.07,.17-.04,.31-.11,.44-.19,.13-.08,.23-.17,.3-.28,.07-.11,.11-.23,.11-.35v-.52c-.06-.02-.15-.05-.26-.07-.11-.02-.22-.04-.35-.06-.12-.02-.25-.03-.39-.04-.14,0-.26-.01-.38-.01-.36,0-.63,.07-.82,.2-.19,.14-.28,.33-.28,.59s.09,.45,.27,.59,.45,.2,.8,.2Z"/><path class="b" d="M29.54,24.68v4.51c0,.2-.08,.35-.24,.46s-.37,.16-.64,.16-.48-.05-.64-.16-.24-.26-.24-.46v-4.51h-.8c-.21,0-.37-.06-.5-.19s-.18-.3-.18-.52,.06-.4,.18-.52,.29-.19,.5-.19h.8v-.81c0-.68,.18-1.18,.52-1.5,.35-.33,.85-.49,1.5-.49,.24,0,.47,.02,.7,.05,.23,.03,.45,.08,.66,.14,.22,.06,.37,.18,.45,.33s.09,.35,.02,.57c-.06,.21-.15,.35-.29,.44-.14,.09-.31,.1-.52,.04-.1-.03-.22-.06-.35-.08-.13-.02-.26-.03-.39-.03-.37,0-.55,.21-.55,.64v.69h1.48c.21,0,.37,.06,.5,.19s.18,.3,.18,.52-.06,.4-.18,.52-.29,.19-.5,.19h-1.48Z"/><path class="b" d="M35.09,28.46c.29,0,.55-.03,.8-.08,.25-.05,.46-.12,.64-.21,.22-.11,.43-.14,.61-.09,.18,.05,.32,.17,.41,.36,.09,.19,.11,.38,.07,.55s-.18,.32-.41,.44c-.28,.13-.6,.24-.97,.32-.37,.07-.77,.11-1.2,.11-.48,0-.93-.08-1.34-.24s-.76-.39-1.05-.69c-.29-.29-.52-.65-.69-1.07-.16-.42-.24-.88-.24-1.4s.08-.97,.25-1.4c.17-.42,.4-.78,.69-1.07,.29-.29,.63-.52,1.03-.69s.82-.24,1.28-.24,.86,.08,1.23,.23c.37,.16,.69,.36,.95,.62s.46,.55,.61,.88,.21,.67,.21,1.03c0,.45-.11,.78-.32,1-.21,.22-.54,.33-1,.33h-3.14c.18,.87,.71,1.3,1.59,1.3Zm.91-2.59c.27,0,.38-.14,.32-.42-.06-.28-.21-.51-.43-.7-.22-.19-.54-.28-.94-.28-.38,0-.7,.12-.95,.35-.25,.23-.42,.58-.5,1.04h2.5Z"/></g></svg>