<?xml version="1.0" encoding="utf-8"?>
<!-- Generator: Adobe Illustrator 26.5.0, SVG Export Plug-In . SVG Version: 6.00 Build 0)  -->
<svg version="1.1" id="a" xmlns="http://www.w3.org/2000/svg" xmlns:xlink="http://www.w3.org/1999/xlink" x="0px" y="0px"
	 viewBox="0 0 49.6 48.8" style="enable-background:new 0 0 49.6 48.8;" xml:space="preserve">
<style type="text/css">
	.st0{fill:#C2AEEC;}
	.st1{fill:none;stroke:#313131;stroke-width:2;stroke-linecap:round;stroke-linejoin:round;}
</style>
<circle class="st0" cx="28.2" cy="22.5" r="12.7"/>
<path class="st1" d="M4.2,1.5h41.3c1.5,0,2.7,1.2,2.7,2.7v31c0,1.5-1.2,2.7-2.7,2.7H4.2c-1.5,0-2.7-1.2-2.7-2.7v-31
	C1.5,2.7,2.7,1.5,4.2,1.5z"/>
<g>
	<path class="st1" d="M24.8,7c-7,0-12.7,5.7-12.7,12.7h8.2C20.3,12.6,22.3,7,24.8,7z"/>
	<path class="st1" d="M20.3,19.7h-8.2c0,7,5.7,12.7,12.7,12.7C22.3,32.4,20.3,26.7,20.3,19.7z"/>
	<path class="st1" d="M24.8,7c2.5,0,4.5,5.7,4.5,12.7h8.2C37.5,12.6,31.8,7,24.8,7z"/>
	<path class="st1" d="M24.8,32.4c7,0,12.7-5.7,12.7-12.7h-8.2C29.3,26.7,27.3,32.4,24.8,32.4z"/>
	<path class="st1" d="M20.3,19.7h8.9c0-7-2-12.7-4.5-12.7S20.3,12.6,20.3,19.7z"/>
	<path class="st1" d="M29.3,19.7h-8.9c0,7,2,12.7,4.5,12.7S29.3,26.7,29.3,19.7z"/>
</g>
<line class="st1" x1="1.5" y1="47.3" x2="48.1" y2="47.3"/>
</svg>
