<svg id="그룹_647" data-name="그룹 647" xmlns="http://www.w3.org/2000/svg" xmlns:xlink="http://www.w3.org/1999/xlink" width="42.145" height="34.65" viewBox="0 0 42.145 34.65">
  <defs>
    <clipPath id="clip-path">
      <rect id="사각형_493" data-name="사각형 493" width="42.145" height="34.65" fill="none"/>
    </clipPath>
  </defs>
  <g id="그룹_646" data-name="그룹 646" clip-path="url(#clip-path)">
    <path id="패스_493" data-name="패스 493" d="M29.447,49.354a1.633,1.633,0,0,0-1.207.511,1.775,1.775,0,0,0,0,2.473,1.634,1.634,0,0,0,1.207.511,1.747,1.747,0,0,0,0-3.494" transform="translate(-20.531 -36.53)" fill="#42d31a"/>
    <path id="패스_494" data-name="패스 494" d="M85.573,49.3a1.625,1.625,0,0,0-1.206.51,1.773,1.773,0,0,0,0,2.473,1.63,1.63,0,0,0,1.206.511,1.747,1.747,0,0,0,0-3.494" transform="translate(-62.074 -36.488)" fill="#42d31a"/>
    <path id="패스_495" data-name="패스 495" d="M123.005,49.354a1.635,1.635,0,0,0-1.207.511,1.776,1.776,0,0,0,0,2.473,1.636,1.636,0,0,0,1.207.511,1.747,1.747,0,0,0,0-3.494" transform="translate(-89.779 -36.53)" fill="#42d31a"/>
    <path id="패스_496" data-name="패스 496" d="M37.55,0H4.595A4.609,4.609,0,0,0,0,4.6V23.233a4.609,4.609,0,0,0,4.595,4.6H17.535s2.5,6.822,3.409,6.822,3.615-6.822,3.615-6.822H37.55a4.609,4.609,0,0,0,4.595-4.6V4.6A4.609,4.609,0,0,0,37.55,0M12.25,17.206a3.559,3.559,0,0,1-2.745,1.046,3.577,3.577,0,0,1-2.238-.7H7.235v.524H4.761V7.283H7.235v4.125h.031a4.067,4.067,0,0,1,2.607-.8,3.272,3.272,0,0,1,2.388,1.177,4.324,4.324,0,0,1,.964,2.773,3.542,3.542,0,0,1-.976,2.648m5.31.949H15.037V11.477a1.607,1.607,0,0,0-1.218-1.744V7.061s3.536.216,3.741,4.5Zm9.9-2.046a3.921,3.921,0,0,1-.928,1.294,4.219,4.219,0,0,1-1.382.862,4.571,4.571,0,0,1-1.649.3,4.451,4.451,0,0,1-1.623-.3A4.331,4.331,0,0,1,20.5,17.4a4.1,4.1,0,0,1-.948-1.309,3.77,3.77,0,0,1,0-3.044A4.118,4.118,0,0,1,20.5,11.74a4.338,4.338,0,0,1,1.383-.863,4.44,4.44,0,0,1,1.623-.3,4.559,4.559,0,0,1,1.649.3,4.226,4.226,0,0,1,1.382.863,3.916,3.916,0,0,1,.928,1.295,3.89,3.89,0,0,1,0,3.074m9.923,1.072c0,1.9-.359,3.05-1.2,3.853a4.3,4.3,0,0,1-3.643.849v-1.96a2.1,2.1,0,0,0,2.388-1.865v-.5h-.03a2.8,2.8,0,0,1-2.484,1.062,3.189,3.189,0,0,1-2.493-1.074,4.177,4.177,0,0,1-.895-2.809,4.65,4.65,0,0,1,1-3.135,3.412,3.412,0,0,1,2.694-1.135,2.915,2.915,0,0,1,2.181.78h.03v-.591h2.459Z" fill="#42d31a"/>
  </g>
</svg>
