<svg xmlns="http://www.w3.org/2000/svg" width="24" height="30.75" viewBox="0 0 24 30.75">
  <g id="document-text-outline" transform="translate(-6 -2.625)">
    <path id="패스_513" data-name="패스 513" d="M9.462,2.625h7.606a2.981,2.981,0,0,1,2.12.879l9.932,9.932A2.98,2.98,0,0,1,30,15.513q0,.022,0,.044V30.279a3.386,3.386,0,0,1-.61,2.378,3.062,3.062,0,0,1-2.365.718H8.972a3.055,3.055,0,0,1-2.364-.719A3.393,3.393,0,0,1,6,30.279V6.139C6,3.84,7.2,2.625,9.462,2.625ZM28.5,15.594q0-.019,0-.038a1.49,1.49,0,0,0-.439-1.06L18.128,4.564a1.49,1.49,0,0,0-1.06-.439H9.462c-1.43,0-1.962.546-1.962,2.014v24.14a2.729,2.729,0,0,0,.216,1.367c.139.152.561.229,1.256.229H27.024c.7,0,1.119-.077,1.258-.23a2.714,2.714,0,0,0,.217-1.366Z" fill="#9f9f9f"/>
    <path id="패스_514" data-name="패스 514" d="M28.688,15.376H19.747a2.174,2.174,0,0,1-2.5-2.45V3.938a.75.75,0,1,1,1.5,0v8.988a1.241,1.241,0,0,0,.176.774c.084.08.294.175.821.175h8.941a.75.75,0,0,1,0,1.5Z" fill="#9f9f9f"/>
    <path id="패스_515" data-name="패스 515" d="M23.625,21H12.375a.75.75,0,0,1,0-1.5h11.25a.75.75,0,0,1,0,1.5Z" fill="#9f9f9f"/>
    <path id="패스_516" data-name="패스 516" d="M23.625,26.625H12.375a.75.75,0,0,1,0-1.5h11.25a.75.75,0,0,1,0,1.5Z" fill="#9f9f9f"/>
  </g>
</svg>
