<?xml version="1.0" encoding="utf-8"?>
<!-- Generator: Adobe Illustrator 26.3.1, SVG Export Plug-In . SVG Version: 6.00 Build 0)  -->
<svg version="1.1" id="그룹_654" xmlns="http://www.w3.org/2000/svg" xmlns:xlink="http://www.w3.org/1999/xlink" x="0px" y="0px"
	 viewBox="0 0 38.6 38.6" style="enable-background:new 0 0 38.6 38.6;" xml:space="preserve">
<style type="text/css">
	.st0{fill:#1574EA;}
	.st1{fill:#FFFFFF;}
</style>
<path class="st0" d="M19.3,38.6L19.3,38.6C8.6,38.6,0,30,0,19.3v0C0,8.6,8.6,0,19.3,0h0C30,0,38.6,8.6,38.6,19.3v0
	C38.6,30,30,38.6,19.3,38.6z"/>
<g>
	<path class="st1" d="M27.1,25l0.9-5.7h-5.4v-4.1c0-1.3,1.1-2.4,2.4-2.4h3.4V7.3h-4.9c-3.9,0-7,3.1-7,7v5.1h-5v5.8h5v13.3
		c0.9,0.1,1.9,0.2,2.8,0.2h0c1.1,0,2.2-0.1,3.2-0.3V25H27.1z"/>
</g>
</svg>
