<?xml version="1.0" encoding="utf-8"?>
<!-- Generator: Adobe Illustrator 26.5.0, SVG Export Plug-In . SVG Version: 6.00 Build 0)  -->
<svg version="1.1" id="Layer_1" xmlns="http://www.w3.org/2000/svg" xmlns:xlink="http://www.w3.org/1999/xlink" x="0px" y="0px"
	 viewBox="0 0 46.7 46.7" style="enable-background:new 0 0 46.7 46.7;" xml:space="preserve">
<style type="text/css">
	.st0{fill:#414141;}
	.st1{fill:#986AC7;}
</style>
<g id="chatboxes" transform="translate(-3.375 -3.375)">
	<path id="패스_581" class="st0" d="M30.5,38.6c-0.5-0.3-1.1-0.5-1.8-0.5H17.2c-3.4,0.1-6.3-2.5-6.5-5.9V22.2h-0.2
		c-2.5,0-4.6,2-4.6,4.5c0,0,0,0,0,0.1v12.9c0,2.5,2.1,4.1,4.8,4.1h1.6v4.8l5.3-4.5c0.4-0.2,0.9-0.3,1.3-0.3h9c2.3,0,4.7-1.1,5.2-3.2
		L30.5,38.6L30.5,38.6z"/>
	<path id="패스_582" class="st1" d="M41.2,6.8H19.5c-3.1,0-5.6,2.4-5.6,5.5c0,0.2,0,0.3,0,0.5v16.8c0.1,3.4,2.9,6.1,6.3,6h10.1
		c0.6-0.1,1.2,0.1,1.8,0.4l7.5,6v-6.4h1.7c3.4,0.1,6.2-2.6,6.3-6V12.8C47.5,9.4,44.6,6.7,41.2,6.8z"/>
</g>
</svg>
