<svg xmlns="http://www.w3.org/2000/svg" width="19.909" height="18.25" viewBox="0 0 19.909 18.25">
  <path id="iconmonstr-control-panel-5" d="M9.954,7.636a.83.83,0,1,1-.83.83A.83.83,0,0,1,9.954,7.636Zm0-1.659a2.489,2.489,0,1,0,2.489,2.489A2.488,2.488,0,0,0,9.954,5.977ZM2.489,9.3a2.489,2.489,0,1,0,2.489,2.489A2.488,2.488,0,0,0,2.489,9.3Zm14.932,0a2.489,2.489,0,1,0,2.489,2.489A2.488,2.488,0,0,0,17.42,9.3ZM9.954,4.318a4.138,4.138,0,0,1,.83.084V1.83a.83.83,0,1,0-1.659,0V4.4A4.138,4.138,0,0,1,9.954,4.318ZM17.42,7.636a4.138,4.138,0,0,1,.83.084V1.83a.83.83,0,0,0-1.659,0V7.72A4.138,4.138,0,0,1,17.42,7.636Zm0,8.3a4.138,4.138,0,0,1-.83-.084V18.42a.83.83,0,0,0,1.659,0V15.848A4.138,4.138,0,0,1,17.42,15.932ZM2.489,7.636a4.138,4.138,0,0,1,.83.084V1.83a.83.83,0,1,0-1.659,0V7.72A4.138,4.138,0,0,1,2.489,7.636Zm7.466,4.977a4.138,4.138,0,0,1-.83-.084V18.42a.83.83,0,0,0,1.659,0V12.53A4.138,4.138,0,0,1,9.954,12.613ZM2.489,15.932a4.138,4.138,0,0,1-.83-.084V18.42a.83.83,0,0,0,1.659,0V15.848A4.138,4.138,0,0,1,2.489,15.932Z" transform="translate(0 -1)" fill="#9f9f9f"/>
</svg>
