<svg id="그룹_649" data-name="그룹 649" xmlns="http://www.w3.org/2000/svg" xmlns:xlink="http://www.w3.org/1999/xlink" width="39.207" height="38.587" viewBox="0 0 39.207 38.587">
  <defs>
    <clipPath id="clip-path">
      <rect id="사각형_494" data-name="사각형 494" width="39.207" height="38.587" fill="none"/>
    </clipPath>
  </defs>
  <g id="그룹_648" data-name="그룹 648" transform="translate(0 0)" clip-path="url(#clip-path)">
    <path id="패스_497" data-name="패스 497" d="M39.028,19.4C38.023,7.19,35.814,0,19.606,0S1.19,7.19.18,19.4c-1.3,15.766,4.43,19.183,19.426,19.183S40.332,35.17,39.028,19.4M17.506,6.451l6.365,0a.341.341,0,0,1,.241.1.332.332,0,0,1,.094.239c-.089,5.322-5.333,6.17-5.384,6.179a.461.461,0,0,1-.051,0H12.046a.335.335,0,0,1-.329-.362c.448-5.334,5.739-6.149,5.789-6.156M29.114,23.535H26.461c-.51,2.828-2.487,8.6-10.079,8.6-10.05,0-10.258-10.131-10.258-10.131V15.929a.333.333,0,0,1,.334-.334H29.114a3.97,3.97,0,0,1,0,7.94" transform="translate(-0.001 0)" fill="#42d31a"/>
    <path id="패스_498" data-name="패스 498" d="M86.538,55a1.929,1.929,0,1,0,1.927,1.928A1.928,1.928,0,0,0,86.538,55" transform="translate(-57.517 -37.389)" fill="#42d31a"/>
  </g>
</svg>
